<svg xmlns="http://www.w3.org/2000/svg" viewBox="0 0 300 300">
  <!-- Background (transparent) -->
  <rect width="300" height="300" fill="none"/>
  <!-- Flask outline -->
  <path d="M135,80 L135,120 L95,230 A60,30 0 0,0 205,230 L165,120 L165,80"
        fill="none" stroke="#e2e8f0" stroke-width="4"/>
  <!-- Flask top -->
  <path d="M125,80 L175,80" stroke="#e2e8f0" stroke-width="4"/>
  <!-- Liquid with gradient -->
  <defs>
    <linearGradient id="liquidGradient" x1="0%" y1="0%" x2="100%" y2="100%">
      <stop offset="0%" stop-color="#3b82f6"/>
      <stop offset="100%" stop-color="#1d4ed8"/>
    </linearGradient>
  </defs>
  <path d="M135,120 L95,230 A60,30 0 0,0 205,230 L165,120 Z" fill="url(#liquidGradient)"/>
  <!-- Multiple connected chat bubbles - on left side now -->
  <!-- Main chat bubble -->
  <path d="M90,130 Q60,130 60,160 Q60,190 90,190 L110,190 L100,210 L120,190 Q150,190 150,160 Q150,130 120,130 Z"
        fill="#1f2937" stroke="#e2e8f0" stroke-width="2.5"/>
  <!-- Connection from flask to chat -->
  <path d="M135,110 Q120,120 120,130" fill="none" stroke="#e2e8f0" stroke-width="2"/>
  <!-- Network inside flask -->
  <circle cx="180" cy="150" r="7" fill="#f8fafc"/>
  <circle cx="150" cy="180" r="10" fill="#f8fafc"/>
  <circle cx="120" cy="210" r="7" fill="#f8fafc"/>
  <circle cx="180" cy="210" r="7" fill="#f8fafc"/>
  <!-- Network connections -->
  <line x1="180" y1="150" x2="150" y2="180" stroke="#f8fafc" stroke-width="1.5"/>
  <line x1="120" y1="210" x2="150" y2="180" stroke="#f8fafc" stroke-width="1.5"/>
  <line x1="180" y1="210" x2="150" y2="180" stroke="#f8fafc" stroke-width="1.5"/>
  <line x1="120" y1="210" x2="180" y2="210" stroke="#f8fafc" stroke-width="1.5"/>
  <!-- Academic elements in chat bubble -->
  <!-- Mini network in chat -->
  <circle cx="120" cy="150" r="5" fill="#3b82f6"/>
  <circle cx="100" cy="140" r="5" fill="#3b82f6"/>
  <circle cx="80" cy="150" r="5" fill="#3b82f6"/>
  <circle cx="100" cy="170" r="5" fill="#3b82f6"/>
  <!-- Mini network connections -->
  <line x1="120" y1="150" x2="100" y2="140" stroke="#3b82f6" stroke-width="1"/>
  <line x1="100" y1="140" x2="80" y2="150" stroke="#3b82f6" stroke-width="1"/>
  <line x1="120" y1="150" x2="100" y2="170" stroke="#3b82f6" stroke-width="1"/>
  <line x1="80" y1="150" x2="100" y2="170" stroke="#3b82f6" stroke-width="1"/>
  <!-- Document icon in bubble -->
  <rect x="95" y="165" width="10" height="12" fill="#3b82f6"/>
  <path d="M97,168 L103,168 M97,171 L103,171 M97,174 L100,174" stroke="#f8fafc" stroke-width="0.8"/>
  <!-- Bubbles in flask -->
  <circle cx="140" cy="100" r="4" fill="#f8fafc"/>
  <circle cx="155" cy="95" r="3" fill="#f8fafc"/>
</svg> 