<svg xmlns="http://www.w3.org/2000/svg" viewBox="0 0 300 300">
  <!-- Background (transparent) -->
  <rect width="300" height="300" fill="none"/>
  <!-- Flask outline -->
  <path d="M135,80 L135,120 L95,230 A60,30 0 0,0 205,230 L165,120 L165,80"
        fill="none" stroke="#e2e8f0" stroke-width="4"/>
  <!-- Flask top -->
  <path d="M125,80 L175,80" stroke="#e2e8f0" stroke-width="4"/>
  <!-- Liquid with gradient -->
  <defs>
    <linearGradient id="liquidGradient" x1="0%" y1="0%" x2="100%" y2="100%">
      <stop offset="0%" stop-color="#3b82f6"/>
      <stop offset="100%" stop-color="#1d4ed8"/>
    </linearGradient>
  </defs>
  <path d="M135,120 L95,230 A60,30 0 0,0 205,230 L165,120 Z" fill="url(#liquidGradient)"/>
  <!-- Network inside flask -->
  <circle cx="180" cy="150" r="7" fill="#f8fafc"/>
  <circle cx="150" cy="180" r="10" fill="#f8fafc"/>
  <circle cx="120" cy="210" r="7" fill="#f8fafc"/>
  <circle cx="180" cy="210" r="7" fill="#f8fafc"/>
  <!-- Network connections -->
  <line x1="180" y1="150" x2="150" y2="180" stroke="#f8fafc" stroke-width="1.5"/>
  <line x1="120" y1="210" x2="150" y2="180" stroke="#f8fafc" stroke-width="1.5"/>
  <line x1="180" y1="210" x2="150" y2="180" stroke="#f8fafc" stroke-width="1.5"/>
  <line x1="120" y1="210" x2="180" y2="210" stroke="#f8fafc" stroke-width="1.5"/>
  <!-- Bubbles in flask -->
  <circle cx="140" cy="100" r="4" fill="#f8fafc"/>
  <circle cx="155" cy="95" r="3" fill="#f8fafc"/>
</svg> 